<svg width="12" height="12" viewBox="0 0 12 12" fill="none" xmlns="http://www.w3.org/2000/svg">
<path d="M5.5 4.5H6.5C6.63261 4.5 6.75979 4.55268 6.85356 4.64645C6.94732 4.74021 7 4.86739 7 5C7 5.13261 7.05268 5.25979 7.14645 5.35355C7.24022 5.44732 7.36739 5.5 7.5 5.5C7.63261 5.5 7.75979 5.44732 7.85356 5.35355C7.94732 5.25979 8 5.13261 8 5C8 4.60218 7.84197 4.22064 7.56066 3.93934C7.27936 3.65804 6.89783 3.5 6.5 3.5H5.5C5.10218 3.5 4.72065 3.65804 4.43934 3.93934C4.15804 4.22064 4 4.60218 4 5V7C4 7.39782 4.15804 7.77936 4.43934 8.06066C4.72065 8.34196 5.10218 8.5 5.5 8.5H6.5C6.89783 8.5 7.27936 8.34196 7.56066 8.06066C7.84197 7.77936 8 7.39782 8 7C8 6.86739 7.94732 6.74021 7.85356 6.64645C7.75979 6.55268 7.63261 6.5 7.5 6.5C7.36739 6.5 7.24022 6.55268 7.14645 6.64645C7.05268 6.74021 7 6.86739 7 7C7 7.13261 6.94732 7.25979 6.85356 7.35355C6.75979 7.44732 6.63261 7.5 6.5 7.5H5.5C5.36739 7.5 5.24022 7.44732 5.14645 7.35355C5.05268 7.25979 5 7.13261 5 7V5C5 4.86739 5.05268 4.74021 5.14645 4.64645C5.24022 4.55268 5.36739 4.5 5.5 4.5ZM6 1C5.0111 1 4.0444 1.29324 3.22215 1.84265C2.39991 2.39206 1.75904 3.17295 1.3806 4.08658C1.00217 5.00021 0.90315 6.00555 1.09608 6.97545C1.289 7.94536 1.76521 8.83627 2.46447 9.53553C3.16373 10.2348 4.05465 10.711 5.02455 10.9039C5.99446 11.0969 6.99979 10.9978 7.91342 10.6194C8.82705 10.241 9.60794 9.6001 10.1573 8.77785C10.7068 7.95561 11 6.98891 11 6C11 5.34339 10.8707 4.69321 10.6194 4.08658C10.3681 3.47995 9.99983 2.92876 9.53554 2.46447C9.07124 2.00017 8.52005 1.63188 7.91342 1.3806C7.30679 1.12933 6.65661 1 6 1ZM6 10C5.20888 10 4.43552 9.7654 3.77772 9.32588C3.11992 8.88635 2.60723 8.26164 2.30448 7.53073C2.00173 6.79983 1.92252 5.99556 2.07686 5.21964C2.2312 4.44371 2.61216 3.73098 3.17158 3.17157C3.73099 2.61216 4.44372 2.2312 5.21964 2.07686C5.99557 1.92252 6.79983 2.00173 7.53074 2.30448C8.26164 2.60723 8.88635 3.11992 9.32588 3.77772C9.76541 4.43552 10 5.20887 10 6C10 7.06087 9.57858 8.07828 8.82843 8.82843C8.07828 9.57857 7.06087 10 6 10Z" fill="white"/>
</svg>
