<svg width="24" height="25" viewBox="0 0 24 25" fill="none" xmlns="http://www.w3.org/2000/svg">
<path d="M12 6.5C6.3 6.5 2 8.65 2 11.5C2 13.95 5.19 15.88 9.71 16.38L9.29 16.79C9.19627 16.883 9.12188 16.9936 9.07111 17.1154C9.02034 17.2373 8.9942 17.368 8.9942 17.5C8.9942 17.632 9.02034 17.7627 9.07111 17.8846C9.12188 18.0064 9.19627 18.117 9.29 18.21C9.38296 18.3037 9.49356 18.3781 9.61542 18.4289C9.73728 18.4797 9.86799 18.5058 10 18.5058C10.132 18.5058 10.2627 18.4797 10.3846 18.4289C10.5064 18.3781 10.617 18.3037 10.71 18.21L12.71 16.21C12.801 16.1149 12.8724 16.0028 12.92 15.88C13.02 15.6365 13.02 15.3635 12.92 15.12C12.8724 14.9972 12.801 14.8851 12.71 14.79L10.71 12.79C10.5217 12.6017 10.2663 12.4959 10 12.4959C9.7337 12.4959 9.4783 12.6017 9.29 12.79C9.1017 12.9783 8.99591 13.2337 8.99591 13.5C8.99591 13.7663 9.1017 14.0217 9.29 14.21L9.41 14.32C6 13.84 4 12.5 4 11.5C4 10.28 7.12 8.5 12 8.5C16.88 8.5 20 10.28 20 11.5C20 12.33 18.55 13.5 15.79 14.1C15.6594 14.125 15.535 14.1759 15.4243 14.2495C15.3135 14.3232 15.2186 14.4182 15.145 14.5291C15.0715 14.6399 15.0207 14.7643 14.9958 14.8949C14.9709 15.0256 14.9724 15.1599 15 15.29C15.0273 15.4188 15.0798 15.541 15.1544 15.6495C15.2291 15.758 15.3244 15.8507 15.435 15.9222C15.5456 15.9938 15.6692 16.0428 15.7988 16.0664C15.9283 16.0901 16.0613 16.0879 16.19 16.06C19.84 15.26 22 13.56 22 11.5C22 8.65 17.7 6.5 12 6.5Z" fill="white"/>
</svg>
