<svg width="24" height="24" viewBox="0 0 24 24" fill="none" xmlns="http://www.w3.org/2000/svg">
<path d="M1.81076 9.72766C2.09205 9.44645 2.47352 9.28848 2.87126 9.28848C3.26901 9.28848 3.65047 9.44645 3.93176 9.72766L9.23576 15.0317L19.8408 4.42516C19.98 4.28579 20.1454 4.17522 20.3274 4.09976C20.5094 4.0243 20.7045 3.98542 20.9015 3.98535C21.0985 3.98528 21.2936 4.02402 21.4757 4.09935C21.6577 4.17469 21.8231 4.28514 21.9625 4.42441C22.1019 4.56367 22.2124 4.72903 22.2879 4.91102C22.3634 5.09302 22.4022 5.2881 22.4023 5.48513C22.4024 5.68215 22.3636 5.87726 22.2883 6.05931C22.213 6.24136 22.1025 6.40679 21.9633 6.54616L9.23576 19.2737L1.81076 11.8487C1.52956 11.5674 1.37158 11.1859 1.37158 10.7882C1.37158 10.3904 1.52956 10.0089 1.81076 9.72766Z" fill="#010101"/>
</svg>
