<svg width="24" height="24" viewBox="0 0 24 24" fill="none" xmlns="http://www.w3.org/2000/svg">
<path d="M10.9455 12L8.8125 9.89025C8.672 9.73375 8.60175 9.554 8.60175 9.351C8.60175 9.148 8.676 8.97225 8.8245 8.82375C8.973 8.67525 9.14875 8.601 9.35175 8.601C9.55475 8.601 9.7345 8.67125 9.891 8.81175L12.0007 10.9447L14.1105 8.81175C14.3295 8.60875 14.5755 8.54625 14.8485 8.62425C15.1215 8.70225 15.2972 8.878 15.3757 9.1515C15.4542 9.425 15.3917 9.671 15.1882 9.8895L13.0553 11.9992L15.1882 14.109C15.3912 14.328 15.4537 14.574 15.3757 14.847C15.2977 15.12 15.122 15.2958 14.8485 15.3743C14.575 15.4528 14.329 15.3903 14.1105 15.1868L12.0007 13.0538L9.891 15.1868C9.7345 15.3273 9.55475 15.3975 9.35175 15.3975C9.14875 15.3975 8.973 15.3232 8.8245 15.1747C8.676 15.0262 8.60175 14.8505 8.60175 14.6475C8.60175 14.4445 8.672 14.2648 8.8125 14.1083L10.9455 12ZM12 21C14.547 20.9375 16.668 20.0585 18.363 18.363C20.058 16.6675 20.937 14.5465 21 12C20.9375 9.453 20.0585 7.332 18.363 5.637C16.6675 3.942 14.5465 3.063 12 3C9.453 3.0625 7.332 3.9415 5.637 5.637C3.942 7.3325 3.063 9.4535 3 12C3.0625 14.547 3.9415 16.668 5.637 18.363C7.3325 20.058 9.4535 20.937 12 21ZM12 22.5C9.031 22.422 6.55825 21.3948 4.58175 19.4183C2.60525 17.4418 1.578 14.969 1.5 12C1.578 9.031 2.60525 6.55825 4.58175 4.58175C6.55825 2.60525 9.031 1.578 12 1.5C14.969 1.578 17.4418 2.60525 19.4183 4.58175C21.3948 6.55825 22.422 9.031 22.5 12C22.422 14.969 21.3948 17.4418 19.4183 19.4183C17.4418 21.3948 14.969 22.422 12 22.5Z" fill="#E6160B"/>
</svg>
