<svg width="24" height="24" viewBox="0 0 24 24" fill="none" xmlns="http://www.w3.org/2000/svg">
<path d="M19.5002 20.25L19.5002 3.75C19.5002 3.531 19.5705 3.35125 19.711 3.21075C19.8515 3.07025 20.0312 3 20.2502 3C20.4692 3 20.649 3.07025 20.7895 3.21075C20.93 3.35125 21.0002 3.531 21.0002 3.75L21.0002 20.25C21.0002 20.469 20.93 20.6487 20.7895 20.7892C20.649 20.9297 20.4692 21 20.2502 21C20.0312 21 19.8515 20.9297 19.711 20.7892C19.5705 20.6487 19.5002 20.469 19.5002 20.25ZM13.5475 11.25L8.01623 5.71875L9.07073 4.64025L16.5002 12.0697L9.07073 19.4992L8.01623 18.4447L13.7117 12.7492L3.00098 12.7492L3.00098 11.2492L13.5482 11.2492L13.5475 11.25Z" fill="#010101"/>
</svg>
