<svg width="40" height="40" viewBox="0 0 40 40" fill="none" xmlns="http://www.w3.org/2000/svg">
<path d="M20.5 34.5C24.745 34.3958 28.28 32.9308 31.105 30.105C33.93 27.2792 35.395 23.7442 35.5 19.5C35.3958 15.255 33.9308 11.72 31.105 8.895C28.2792 6.07 24.7442 4.605 20.5 4.5C16.255 4.60417 12.72 6.06917 9.895 8.895C7.07 11.7208 5.605 15.2558 5.5 19.5C5.60417 23.745 7.06917 27.28 9.895 30.105C12.7208 32.93 16.2558 34.395 20.5 34.5ZM20.5 37C15.5517 36.87 11.4304 35.1579 8.13625 31.8638C4.84208 28.5696 3.13 24.4483 3 19.5C3.13 14.5517 4.84208 10.4304 8.13625 7.13625C11.4304 3.84208 15.5517 2.13 20.5 2C25.4483 2.13 29.5696 3.84208 32.8638 7.13625C36.1579 10.4304 37.87 14.5517 38 19.5C37.87 24.4483 36.1579 28.5696 32.8638 31.8638C29.5696 35.1579 25.4483 36.87 20.5 37ZM19.25 9.5C19.615 9.5 19.9146 9.61708 20.1488 9.85125C20.3829 10.0854 20.5 10.385 20.5 10.75V20.75C20.5 21.115 20.3829 21.4146 20.1488 21.6488C19.9146 21.8829 19.615 22 19.25 22C18.885 22 18.5854 21.8829 18.3512 21.6488C18.1171 21.4146 18 21.115 18 20.75V10.75C18 10.385 18.1171 10.0854 18.3512 9.85125C18.5854 9.61708 18.885 9.5 19.25 9.5ZM19.25 19.5H29.25C30.0833 19.5 30.5 19.9167 30.5 20.75C30.5 21.5833 30.0833 22 29.25 22H19.25C18.4167 22 18 21.5833 18 20.75C18 19.9167 18.4167 19.5 19.25 19.5Z" fill="#010101"/>
</svg>
