<svg width="24" height="24" viewBox="0 0 24 24" fill="none" xmlns="http://www.w3.org/2000/svg">
<path d="M4.50098 3.75L4.50098 20.25C4.50098 20.4489 4.42196 20.6397 4.28131 20.7803C4.14065 20.921 3.94989 21 3.75098 21C3.55206 21 3.3613 20.921 3.22065 20.7803C3.07999 20.6397 3.00098 20.4489 3.00098 20.25L3.00098 3.75C3.00098 3.55109 3.07999 3.36032 3.22065 3.21967C3.3613 3.07902 3.55206 3 3.75098 3C3.94989 3 4.14066 3.07902 4.28131 3.21967C4.42196 3.36032 4.50098 3.55109 4.50098 3.75ZM18.055 12.75L7.50098 12.75L7.50098 11.25L18.205 11.25L12.5155 5.5605L13.576 4.5L21.001 11.925L13.576 19.35L12.5155 18.288L18.055 12.75Z" fill="#010101"/>
</svg>
