<svg width="16" height="17" viewBox="0 0 16 17" fill="none" xmlns="http://www.w3.org/2000/svg">
<path d="M6.15017 14.3584L6.15701 14.3523L6.16338 14.3458L11.3342 9.019C11.4751 8.87742 11.5465 8.69915 11.5465 8.49964C11.5465 8.30013 11.4751 8.12185 11.3342 7.98028L6.16338 2.65351L6.15701 2.64694L6.15017 2.64086C6.01088 2.51693 5.84247 2.45264 5.656 2.45264C5.46953 2.45264 5.30112 2.51693 5.16183 2.64086L5.078 2.71544V2.74097C4.98813 2.86758 4.9375 3.01252 4.9375 3.17214C4.9375 3.36713 5.01333 3.53846 5.15001 3.6757L9.85384 8.50014L5.14998 13.3246C5.01332 13.4618 4.9375 13.6332 4.9375 13.8281C4.9375 14.0237 5.01378 14.1955 5.15122 14.3329C5.28867 14.4704 5.46043 14.5466 5.656 14.5466C5.84247 14.5466 6.01088 14.4823 6.15017 14.3584Z" fill="#010101" stroke="#010101" stroke-width="0.5"/>
</svg>
