<svg width="16" height="17" viewBox="0 0 16 17" fill="none" xmlns="http://www.w3.org/2000/svg">
<path d="M9.34945 2.64183L9.34262 2.64791L9.33625 2.65447L4.16543 7.98076C4.02666 8.12022 3.95312 8.29494 3.95312 8.49211C3.95312 8.68903 4.02617 8.8647 4.15786 9.01092L4.15773 9.01104L4.16424 9.01774L9.33624 14.3457L9.34262 14.3523L9.34945 14.3584C9.48874 14.4823 9.65716 14.5466 9.84363 14.5466C10.0392 14.5466 10.211 14.4703 10.3484 14.3329C10.4858 14.1954 10.5621 14.0237 10.5621 13.8281C10.5621 13.6331 10.4863 13.4618 10.3496 13.3246L5.64579 8.50011L10.3496 3.67568C10.4863 3.53844 10.5621 3.36711 10.5621 3.17211C10.5621 2.97654 10.4858 2.80478 10.3484 2.66734C10.211 2.52989 10.0392 2.45361 9.84363 2.45361C9.65716 2.45361 9.48874 2.51791 9.34945 2.64183Z" fill="#010101" stroke="#010101" stroke-width="0.5"/>
</svg>
