<svg width="8" height="14" viewBox="0 0 8 14" fill="none" xmlns="http://www.w3.org/2000/svg">
<path d="M6.34945 1.42797L6.34262 1.43405L6.33625 1.44061L1.16543 6.7669C1.02666 6.90635 0.953125 7.08107 0.953125 7.27825C0.953125 7.47517 1.02617 7.65083 1.15786 7.79705L1.15773 7.79717L1.16424 7.80388L6.33624 13.1319L6.34262 13.1384L6.34945 13.1445C6.48874 13.2684 6.65716 13.3327 6.84363 13.3327C7.0392 13.3327 7.21096 13.2565 7.3484 13.119C7.48584 12.9816 7.56213 12.8098 7.56213 12.6142C7.56213 12.4193 7.4863 12.2479 7.34963 12.1107L2.64579 7.28625L7.34961 2.46181C7.48629 2.32457 7.56213 2.15325 7.56213 1.95825C7.56213 1.76267 7.48584 1.59091 7.3484 1.45347C7.21096 1.31603 7.0392 1.23975 6.84363 1.23975C6.65716 1.23975 6.48874 1.30404 6.34945 1.42797Z" fill="#010101" stroke="#010101" stroke-width="0.5"/>
</svg>
