<svg width="18" height="19" viewBox="0 0 18 19" fill="none" xmlns="http://www.w3.org/2000/svg">
<path d="M2.25 7.53613V16.5361H15.75V4.16113H13.5V4.72363C13.5 4.88788 13.4473 5.0227 13.3419 5.12807C13.2366 5.23345 13.1018 5.28613 12.9375 5.28613C12.7732 5.28613 12.6384 5.23345 12.5331 5.12807C12.4277 5.0227 12.375 4.88788 12.375 4.72363V4.16113H5.625V4.72363C5.625 4.88788 5.57231 5.0227 5.46694 5.12807C5.36156 5.23345 5.22675 5.28613 5.0625 5.28613C4.89825 5.28613 4.76344 5.23345 4.65806 5.12807C4.55269 5.0227 4.5 4.88788 4.5 4.72363V4.16113H2.25V6.41113H15.75V7.53613H2.25ZM5.625 3.03613H12.375V2.47363C12.375 2.30938 12.4277 2.17457 12.5331 2.0692C12.6384 1.96382 12.7732 1.91113 12.9375 1.91113C13.1018 1.91113 13.2366 1.96382 13.3419 2.0692C13.4473 2.17457 13.5 2.30938 13.5 2.47363V3.03613H16.3125C16.4768 3.03613 16.6116 3.08882 16.7169 3.1942C16.8223 3.29957 16.875 3.43438 16.875 3.59863V17.0986C16.875 17.2629 16.8223 17.3977 16.7169 17.5031C16.6116 17.6084 16.4768 17.6611 16.3125 17.6611H1.6875C1.52325 17.6611 1.38844 17.6084 1.28306 17.5031C1.17769 17.3977 1.125 17.2629 1.125 17.0986V3.59863C1.125 3.43438 1.17769 3.29957 1.28306 3.1942C1.38844 3.08882 1.52325 3.03613 1.6875 3.03613H4.5V2.47363C4.5 2.30938 4.55269 2.17457 4.65806 2.0692C4.76344 1.96382 4.89825 1.91113 5.0625 1.91113C5.22675 1.91113 5.36156 1.96382 5.46694 2.0692C5.57231 2.17457 5.625 2.30938 5.625 2.47363V3.03613ZM5.0625 9.78613H6.1875C6.35175 9.78613 6.48656 9.83882 6.59194 9.9442C6.69731 10.0496 6.75 10.1844 6.75 10.3486C6.75 10.5129 6.69731 10.6477 6.59194 10.7531C6.48656 10.8584 6.35175 10.9111 6.1875 10.9111H5.0625C4.89825 10.9111 4.76344 10.8584 4.65806 10.7531C4.55269 10.6477 4.5 10.5129 4.5 10.3486C4.5 10.1844 4.55269 10.0496 4.65806 9.9442C4.76344 9.83882 4.89825 9.78613 5.0625 9.78613ZM5.0625 13.1611H6.1875C6.35175 13.1611 6.48656 13.2138 6.59194 13.3192C6.69731 13.4246 6.75 13.5594 6.75 13.7236C6.75 13.8879 6.69731 14.0227 6.59194 14.1281C6.48656 14.2334 6.35175 14.2861 6.1875 14.2861H5.0625C4.89825 14.2861 4.76344 14.2334 4.65806 14.1281C4.55269 14.0227 4.5 13.8879 4.5 13.7236C4.5 13.5594 4.55269 13.4246 4.65806 13.3192C4.76344 13.2138 4.89825 13.1611 5.0625 13.1611ZM8.4375 9.78613H9.5625C9.72675 9.78613 9.86156 9.83882 9.96694 9.9442C10.0723 10.0496 10.125 10.1844 10.125 10.3486C10.125 10.5129 10.0723 10.6477 9.96694 10.7531C9.86156 10.8584 9.72675 10.9111 9.5625 10.9111H8.4375C8.27325 10.9111 8.13844 10.8584 8.03306 10.7531C7.92769 10.6477 7.875 10.5129 7.875 10.3486C7.875 10.1844 7.92769 10.0496 8.03306 9.9442C8.13844 9.83882 8.27325 9.78613 8.4375 9.78613ZM8.4375 13.1611H9.5625C9.72675 13.1611 9.86156 13.2138 9.96694 13.3192C10.0723 13.4246 10.125 13.5594 10.125 13.7236C10.125 13.8879 10.0723 14.0227 9.96694 14.1281C9.86156 14.2334 9.72675 14.2861 9.5625 14.2861H8.4375C8.27325 14.2861 8.13844 14.2334 8.03306 14.1281C7.92769 14.0227 7.875 13.8879 7.875 13.7236C7.875 13.5594 7.92769 13.4246 8.03306 13.3192C8.13844 13.2138 8.27325 13.1611 8.4375 13.1611ZM11.8125 9.78613H12.9375C13.1018 9.78613 13.2366 9.83882 13.3419 9.9442C13.4473 10.0496 13.5 10.1844 13.5 10.3486C13.5 10.5129 13.4473 10.6477 13.3419 10.7531C13.2366 10.8584 13.1018 10.9111 12.9375 10.9111H11.8125C11.6482 10.9111 11.5134 10.8584 11.4081 10.7531C11.3027 10.6477 11.25 10.5129 11.25 10.3486C11.25 10.1844 11.3027 10.0496 11.4081 9.9442C11.5134 9.83882 11.6482 9.78613 11.8125 9.78613ZM11.8125 13.1611H12.9375C13.1018 13.1611 13.2366 13.2138 13.3419 13.3192C13.4473 13.4246 13.5 13.5594 13.5 13.7236C13.5 13.8879 13.4473 14.0227 13.3419 14.1281C13.2366 14.2334 13.1018 14.2861 12.9375 14.2861H11.8125C11.6482 14.2861 11.5134 14.2334 11.4081 14.1281C11.3027 14.0227 11.25 13.8879 11.25 13.7236C11.25 13.5594 11.3027 13.4246 11.4081 13.3192C11.5134 13.2138 11.6482 13.1611 11.8125 13.1611Z" fill="#010101"/>
</svg>
