<svg width="25" height="25" viewBox="0 0 25 25" fill="none" xmlns="http://www.w3.org/2000/svg">
<path d="M17.8281 7.32833L17.0031 7.17383L16.7031 6.39083C16.3598 5.49474 15.7391 4.73182 14.9316 4.21337C14.1241 3.69492 13.1721 3.44809 12.2144 3.50888C11.2567 3.56968 10.3435 3.93493 9.60808 4.55133C8.87262 5.16773 8.35339 6.00302 8.12614 6.93533L7.89364 7.89383L6.92164 8.05883C5.96282 8.22484 5.09333 8.72388 4.46634 9.46804C3.83934 10.2122 3.49506 11.1537 3.49414 12.1268C3.49414 14.4068 5.33914 16.2503 7.61464 16.2503H16.9896C18.111 16.2514 19.1923 15.8338 20.0218 15.0793C20.8513 14.3248 21.3693 13.2878 21.4742 12.1714C21.5791 11.055 21.2634 9.93964 20.589 9.04381C19.9146 8.14797 18.93 7.5362 17.8281 7.32833ZM22.9896 11.7503C22.9896 13.3416 22.3575 14.8678 21.2323 15.993C20.1071 17.1182 18.5809 17.7503 16.9896 17.7503H7.61464C6.87655 17.7503 6.14568 17.605 5.46377 17.3225C4.78186 17.04 4.16226 16.626 3.64035 16.1041C2.5863 15.0501 1.99414 13.6205 1.99414 12.1298C1.99428 10.802 2.4635 9.517 3.31897 8.50152C4.17444 7.48604 5.36116 6.80543 6.66964 6.57983C6.97363 5.33778 7.66628 4.22524 8.64669 3.40432C9.6271 2.58341 10.844 2.097 12.1202 2.01597C13.3963 1.93495 14.665 2.26354 15.7413 2.95387C16.8177 3.6442 17.6455 4.6602 18.1041 5.85383C19.4778 6.1138 20.7176 6.84516 21.6095 7.92167C22.5014 8.99819 22.9896 10.3523 22.9896 11.7503ZM7.25014 19.2503H8.75014V20.7503H7.25014V19.2503ZM11.7501 19.2503H13.2501V20.7503H11.7501V19.2503ZM9.50014 21.5003H11.0001V23.0003H9.50014V21.5003ZM14.0001 21.5003H15.5001V23.0003H14.0001V21.5003ZM16.2501 19.2503H17.7501V20.7503H16.2501V19.2503Z" fill="black"/>
</svg>
