<svg width="27" height="27" viewBox="0 0 27 27" fill="none" xmlns="http://www.w3.org/2000/svg">
<path d="M2.35791 18.945C2.35791 18.729 2.42991 18.54 2.58291 18.396C2.73591 18.252 2.92491 18.18 3.14991 18.18H19.9529C20.1779 18.18 20.3579 18.252 20.5019 18.396C20.6459 18.54 20.7179 18.72 20.7179 18.945C20.7179 19.152 20.6459 19.332 20.4929 19.467C20.3399 19.611 20.1599 19.674 19.9529 19.674H3.14991C2.92491 19.674 2.73591 19.602 2.58291 19.467C2.42991 19.323 2.35791 19.152 2.35791 18.945ZM4.71591 16.119C4.71591 15.903 4.79691 15.723 4.94991 15.579C5.08491 15.444 5.26491 15.372 5.48091 15.372H22.2839C22.4909 15.372 22.6619 15.444 22.8059 15.588C22.9499 15.732 23.0129 15.903 23.0129 16.119C23.0129 16.335 22.9409 16.515 22.8059 16.659C22.6619 16.812 22.4909 16.884 22.2839 16.884H5.48091C5.26491 16.884 5.08491 16.812 4.94091 16.659C4.78791 16.506 4.71591 16.326 4.71591 16.119ZM4.83291 13.968C4.83291 14.049 4.87791 14.085 4.96791 14.085H6.25491C6.30891 14.085 6.37191 14.04 6.43491 13.941C6.65091 13.473 6.96591 13.095 7.38891 12.798C7.81191 12.501 8.27991 12.33 8.78391 12.294L9.27891 12.231C9.37791 12.231 9.43191 12.177 9.43191 12.069L9.49491 11.619C9.59391 10.647 9.99891 9.83698 10.7279 9.18898C11.4569 8.54098 12.3119 8.21698 13.2929 8.21698C14.2649 8.21698 15.1109 8.54098 15.8399 9.17998C16.5599 9.81898 16.9739 10.629 17.0729 11.592L17.1449 12.105C17.1449 12.204 17.2079 12.258 17.3249 12.258H18.7559C19.3319 12.258 19.8629 12.411 20.3399 12.726C20.8169 13.041 21.1679 13.446 21.4019 13.959C21.4649 14.058 21.5279 14.103 21.5909 14.103H22.8779C22.9859 14.103 23.0309 14.04 23.0039 13.896C22.7429 12.978 22.2119 12.222 21.4379 11.637C20.6549 11.052 19.7639 10.764 18.7649 10.764H18.4769C18.1799 9.56698 17.5499 8.58598 16.5869 7.82098C15.6239 7.05598 14.5349 6.67798 13.3019 6.67798C12.0419 6.67798 10.9259 7.07398 9.94491 7.86598C8.96391 8.65798 8.34291 9.66598 8.06391 10.89C7.29891 11.07 6.62391 11.43 6.04791 11.979C5.47191 12.528 5.06691 13.176 4.84191 13.941V13.905C4.83291 13.905 4.83291 13.932 4.83291 13.968ZM6.28191 21.699C6.28191 21.483 6.36291 21.312 6.51591 21.168C6.65091 21.033 6.83091 20.961 7.05591 20.961H23.8679C24.0839 20.961 24.2639 21.033 24.4079 21.168C24.5609 21.312 24.6329 21.483 24.6329 21.69C24.6329 21.906 24.5609 22.086 24.4079 22.239C24.2549 22.392 24.0749 22.464 23.8679 22.464H7.05591C6.84891 22.464 6.66891 22.383 6.51591 22.23C6.36291 22.095 6.28191 21.906 6.28191 21.699Z" fill="black"/>
</svg>
