<svg width="25" height="25" viewBox="0 0 25 25" fill="none" xmlns="http://www.w3.org/2000/svg">
<path d="M3 14.9245C3 15.6781 3.18628 16.3809 3.55884 17.0244C3.9314 17.6679 4.43097 18.176 5.07449 18.5485C5.718 18.9211 6.41232 19.1158 7.17437 19.1158H16.3275C17.0811 19.1158 17.7839 18.9296 18.4274 18.5485C19.0709 18.1675 19.579 17.6595 19.9515 17.0244C20.3241 16.3809 20.5188 15.6781 20.5188 14.9245C20.5188 14.3826 20.4003 13.8238 20.1632 13.2311C20.8067 12.4436 21.12 11.5122 21.12 10.4369C21.12 9.63247 20.9253 8.88735 20.5358 8.20996C20.1463 7.53258 19.6044 6.99067 18.927 6.59271C18.2496 6.19475 17.5045 6 16.7001 6C15.4384 6 14.3462 6.4911 13.4232 7.47331C12.7797 7.10922 12.0177 6.92293 11.1455 6.92293C9.95164 6.92293 8.9017 7.28703 7.98723 8.02368C7.07277 8.76034 6.48852 9.70021 6.22604 10.8602C5.2777 11.0719 4.50718 11.5545 3.906 12.3166C3.30482 13.0787 3 13.9508 3 14.9245ZM4.44791 14.9245C4.44791 14.2217 4.68499 13.6121 5.15069 13.0956C5.62486 12.5791 6.21757 12.2827 6.92882 12.1981L7.5046 12.1727L7.56387 11.563C7.68241 10.6485 8.08037 9.87802 8.75776 9.26837C9.43514 8.65026 10.2311 8.34544 11.1371 8.34544C12.06 8.34544 12.8729 8.65873 13.5587 9.27684C14.2446 9.89495 14.6341 10.657 14.7272 11.5715L14.8119 12.2065H16.319C17.0642 12.2065 17.7077 12.4775 18.2496 13.0109C18.7915 13.5444 19.0625 14.1879 19.0625 14.9245C19.0625 15.6866 18.7915 16.3386 18.2581 16.8889C17.7246 17.4393 17.0726 17.7103 16.3275 17.7103H7.17437C6.43772 17.7103 5.80267 17.4393 5.26077 16.8889C4.71886 16.3301 4.44791 15.6781 4.44791 14.9245ZM14.6341 8.29464C15.2183 7.73579 15.9042 7.45637 16.7001 7.45637C17.5383 7.45637 18.2496 7.74426 18.8338 8.32851C19.4181 8.90428 19.7144 9.61553 19.7144 10.4538C19.7144 10.9788 19.5705 11.4953 19.2741 12.0118C18.4613 11.1904 17.4791 10.784 16.319 10.784H16.0566C15.8279 9.84415 15.3538 9.01436 14.6341 8.29464Z" fill="black"/>
</svg>
