<svg width="25" height="25" viewBox="0 0 25 25" fill="none" xmlns="http://www.w3.org/2000/svg">
<path d="M12.2501 2.50049C12.6298 2.50049 12.9436 2.78275 12.9932 3.14885L13 3.25062L12.999 6.59649L15.1715 4.68886C15.4827 4.41546 15.9566 4.44609 16.23 4.75726C16.5034 5.06843 16.4727 5.54232 16.1616 5.81571L12.999 8.59349L12.998 11.4995H15.907L18.6865 8.33873C18.9351 8.05593 19.3494 8.00506 19.6563 8.20363L19.7449 8.27071C20.0277 8.51935 20.0786 8.9336 19.88 9.24058L19.813 9.32918L17.905 11.4985L21.25 11.4993C21.6296 11.4993 21.9435 11.7814 21.9932 12.1475L22 12.2493C22 12.629 21.7179 12.9428 21.3518 12.9925L21.25 12.9993L17.902 12.9995L19.811 15.172C20.0595 15.4549 20.0568 15.8722 19.8204 16.1512L19.7426 16.2304C19.4597 16.479 19.0423 16.4763 18.7634 16.2399L18.6841 16.162L15.905 12.9995L12.997 12.9985L12.998 15.9065L16.1616 18.6863C16.4444 18.9348 16.4955 19.349 16.297 19.6561L16.23 19.7447C15.9814 20.0276 15.5672 20.0786 15.2601 19.8802L15.1715 19.8131L12.998 17.9035L12.9968 21.2506C12.9967 21.6303 12.7145 21.944 12.3484 21.9936L12.2467 22.0005C11.867 22.0005 11.5532 21.7182 11.5036 21.3521L11.4968 21.2504L11.496 17.9065L9.32869 19.813C9.01762 20.0865 8.54372 20.056 8.27022 19.7449C7.99671 19.4339 8.02717 18.96 8.33824 18.6865L11.497 15.9085V12.9995H8.812L5.81512 16.4117C5.54172 16.7228 5.06784 16.7535 4.75667 16.4801C4.44549 16.2067 4.41487 15.7328 4.68826 15.4216L6.816 12.9995L3.25005 13.0005C2.87035 13.0005 2.55652 12.7184 2.50685 12.3523L2.5 12.2505C2.5 11.8708 2.78211 11.557 3.14818 11.5073L3.24995 11.5005H6.374L4.68798 9.57827C4.41476 9.26695 4.44566 8.79308 4.75699 8.51986C5.06831 8.24664 5.54218 8.27754 5.8154 8.58887L8.37 11.4995H11.498V8.59149L8.33824 5.81335C8.05544 5.56471 8.00457 5.15046 8.20314 4.84348L8.27022 4.75488C8.51886 4.47208 8.93311 4.4212 9.24009 4.61978L9.32869 4.68685L11.499 6.59449L11.5 3.25035C11.5001 2.90518 11.7333 2.61455 12.0507 2.52727L12.1484 2.50733L12.2501 2.50049Z" fill="black"/>
</svg>
