<svg width="18" height="16" viewBox="0 0 18 16" fill="none" xmlns="http://www.w3.org/2000/svg">
<path fill-rule="evenodd" clip-rule="evenodd" d="M1.72727 1.36364H16.2727C16.4736 1.36364 16.6364 1.52644 16.6364 1.72727V2.81818C16.6364 3.01901 16.4736 3.18182 16.2727 3.18182H1.72727C1.52644 3.18182 1.36364 3.01901 1.36364 2.81818V1.72727C1.36364 1.52644 1.52644 1.36364 1.72727 1.36364ZM2.09091 3.54545H1.72727C1.32561 3.54545 1 3.21984 1 2.81818V1.72727C1 1.32561 1.32561 1 1.72727 1H16.2727C16.6744 1 17 1.32561 17 1.72727V2.81818C17 3.21984 16.6744 3.54545 16.2727 3.54545H15.9091V13.7273H16.6364C16.8372 13.7273 17 13.8901 17 14.0909V14.8182C17 15.019 16.8372 15.1818 16.6364 15.1818H1.36364C1.16281 15.1818 1 15.019 1 14.8182V14.0909C1 13.8901 1.16281 13.7273 1.36364 13.7273H2.09091V3.54545ZM2.45455 3.54545V13.7273H4.63636V9.72727C4.63636 7.3173 6.59003 5.36364 9 5.36364C11.41 5.36364 13.3636 7.3173 13.3636 9.72727V13.7273H15.5455V3.54545H2.45455ZM13 13.7273V9.72727C13 7.51813 11.2091 5.72727 9 5.72727C6.79086 5.72727 5 7.51813 5 9.72727V13.7273H13ZM1.36364 14.0909L1.36364 14.8182H16.6364V14.0909H1.36364Z" fill="black"/>
<path d="M8.45885 7.90923C8.35905 7.91337 8.27995 8.01554 8.32547 8.11718C8.32547 8.11718 8.37885 8.23769 8.37511 8.39559C8.37136 8.5535 8.32208 8.73147 8.07426 8.88572C7.76546 9.07784 7.36815 9.41865 7.04011 9.86887C6.71206 10.3191 6.45455 10.8804 6.45455 11.5043C6.45459 12.7395 7.60499 13.7273 9.00015 13.7273C10.3953 13.7273 11.5454 12.7395 11.5455 11.5043C11.5455 11.4337 11.5427 11.3656 11.5377 11.2981C11.5278 11.1632 11.3523 11.1103 11.2652 11.216C11.1585 11.3446 10.9783 11.4326 10.7703 11.4329C10.5948 11.4329 10.431 11.3739 10.3361 11.2839C10.2411 11.1938 10.1956 11.0828 10.2514 10.8958C10.4772 10.1397 10.4297 9.549 10.1192 9.0751C9.66457 8.47667 9.05556 8.16735 8.53002 7.92315C8.50608 7.91242 8.48188 7.90826 8.45885 7.90923ZM8.67926 8.39123C9.18603 8.65575 9.65161 8.91552 9.86025 9.23403C10.1182 9.62787 10.1687 10.1062 9.95745 10.8137C9.87605 11.0865 9.95398 11.3378 10.1213 11.4964C10.2886 11.6551 10.5263 11.7298 10.7691 11.7299C10.958 11.7299 11.0878 11.6104 11.2347 11.5217C11.2231 12.5689 10.24 13.4303 9.00015 13.4303C7.75297 13.4303 6.76113 12.56 6.76109 11.5043C6.76109 10.9603 6.98867 10.4546 7.29102 10.0397C7.59337 9.62475 7.97103 9.3031 8.24054 9.13542C8.49652 8.96657 8.70375 8.67886 8.67926 8.39123ZM9.00015 11.1525C8.9555 11.1523 8.91302 11.171 8.88381 11.2038C8.88381 11.2038 8.66847 11.4484 8.45197 11.7508C8.34371 11.902 8.23453 12.0687 8.15022 12.2311C8.0659 12.3935 8.00098 12.5483 8.00098 12.7056C8.00098 12.7717 8.00794 12.8358 8.02132 12.8984C8.03796 12.9795 8.11972 13.0318 8.20315 13.0147C8.28629 12.998 8.33956 12.9189 8.32188 12.8384C8.31272 12.7956 8.30722 12.7514 8.30722 12.7056C8.30722 12.6389 8.34938 12.5065 8.42356 12.3636C8.49774 12.2207 8.5998 12.0636 8.70288 11.9196C8.85102 11.7127 8.92824 11.6295 9.00015 11.5449C9.07208 11.6295 9.14815 11.7128 9.29622 11.9196C9.3993 12.0636 9.50226 12.2207 9.57644 12.3636C9.65062 12.5065 9.69187 12.6389 9.69187 12.7056C9.69187 12.7513 9.68731 12.7956 9.67841 12.8384C9.66073 12.9189 9.714 12.998 9.79714 13.0147C9.87977 13.0312 9.96054 12.9796 9.97777 12.8996C9.9912 12.837 9.99811 12.7716 9.99811 12.7056C9.99811 12.5483 9.93439 12.3935 9.85007 12.2311C9.76576 12.0687 9.65658 11.902 9.54832 11.7508C9.33182 11.4484 9.11648 11.2038 9.11648 11.2038C9.08727 11.1711 9.04479 11.1524 9.00015 11.1525Z" fill="#010101"/>
</svg>
