<svg width="16" height="16" viewBox="0 0 16 16" fill="none" xmlns="http://www.w3.org/2000/svg">
<g clip-path="url(#clip0_1292_34170)">
<path d="M14.4323 8.11301C14.8168 8.3984 15.0019 8.72022 14.9877 9.07845C14.9735 9.43669 14.7638 9.7431 14.3587 9.99769L9.22333 13.1005C8.80334 13.3448 8.32144 13.4562 7.77762 13.4349C7.2338 13.4135 6.76204 13.2648 6.36235 12.9889L1.48431 9.49538C1.09979 9.20999 0.914639 8.88817 0.928855 8.52993C0.943071 8.1717 1.15273 7.86529 1.55784 7.6107L2.25471 8.10978C2.05551 8.23964 1.95259 8.39292 1.94593 8.56962C1.93928 8.74631 2.02995 8.90715 2.21794 9.05212L7.09598 12.5456C7.29961 12.6815 7.53554 12.7545 7.80376 12.7648C8.07198 12.7752 8.31289 12.7207 8.52647 12.6015L13.6619 9.49861C13.8611 9.36875 13.964 9.21547 13.9706 9.03877C13.9773 8.86207 13.8866 8.70124 13.6986 8.55627L14.4323 8.11301ZM2.36501 5.28276C2.16581 5.41262 2.06289 5.5659 2.05623 5.7426C2.04958 5.91929 2.14025 6.08013 2.32824 6.2251L7.20628 9.71863C7.40991 9.85445 7.64584 9.92752 7.91406 9.93783C8.18228 9.94814 8.42318 9.89367 8.63677 9.77444L13.7722 6.67159C13.9714 6.54173 14.0743 6.38845 14.0809 6.21175C14.0876 6.03505 13.9969 5.87422 13.8089 5.72925L8.9309 2.23572C8.72727 2.09989 8.49134 2.02683 8.22312 2.01652C7.95489 2.00621 7.71399 2.06068 7.50041 2.17991L2.36501 5.28276ZM1.66814 4.78368L6.80354 1.68083C7.22353 1.43658 7.70544 1.32514 8.24926 1.34652C8.79307 1.36789 9.26483 1.51654 9.66453 1.79246L14.5426 5.28599C14.9271 5.57138 15.1122 5.8932 15.098 6.25143C15.0838 6.60967 14.8741 6.91608 14.469 7.17067L9.33363 10.2735C8.91364 10.5178 8.43174 10.6292 7.88792 10.6078C7.3441 10.5865 6.87234 10.4378 6.47265 10.1619L1.59461 6.66836C1.21009 6.38297 1.02494 6.06115 1.03915 5.70291C1.05337 5.34468 1.26303 5.03827 1.66814 4.78368Z" fill="#010101"/>
</g>
<defs>
<clipPath id="clip0_1292_34170">
<rect width="16" height="16" fill="white"/>
</clipPath>
</defs>
</svg>
