<svg width="16" height="16" viewBox="0 0 16 16" fill="none" xmlns="http://www.w3.org/2000/svg">
<path d="M14.3 2.75C14.3 2.1701 13.8299 1.7 13.25 1.7L7.65 1.7C7.0701 1.7 6.6 2.1701 6.6 2.75L6.6 8.35C6.6 8.9299 7.0701 9.4 7.65 9.4L13.25 9.4C13.8299 9.4 14.3 8.9299 14.3 8.35L14.3 2.75ZM13.805 12.9L13.0025 12.0975C12.8658 11.9608 12.8658 11.7392 13.0025 11.6025C13.1392 11.4658 13.3608 11.4658 13.4975 11.6025L14.8975 13.0025C15.0342 13.1392 15.0342 13.3608 14.8975 13.4975L13.4975 14.8975C13.3608 15.0342 13.1392 15.0342 13.0025 14.8975C12.8658 14.7608 12.8658 14.5392 13.0025 14.4025L13.805 13.6L4.85 13.6C4.6567 13.6 4.5 13.4433 4.5 13.25C4.5 13.0567 4.6567 12.9 4.85 12.9L13.805 12.9ZM2.4 2.19498L1.59749 2.99749C1.4608 3.13417 1.2392 3.13417 1.10251 2.99749C0.965829 2.8608 0.965829 2.6392 1.10251 2.50251L2.50251 1.10251C2.6392 0.965829 2.8608 0.965829 2.99749 1.10251L4.39749 2.50251C4.53417 2.6392 4.53417 2.8608 4.39749 2.99749C4.2608 3.13417 4.0392 3.13417 3.90251 2.99749L3.1 2.19498L3.1 11.15C3.1 11.3433 2.9433 11.5 2.75 11.5C2.5567 11.5 2.4 11.3433 2.4 11.15L2.4 2.19498ZM15 2.75L15 8.35C15 9.3165 14.2165 10.1 13.25 10.1L7.65 10.1C6.6835 10.1 5.9 9.3165 5.9 8.35L5.9 2.75C5.9 1.7835 6.6835 1 7.65 1L13.25 0.999999C14.2165 0.999999 15 1.7835 15 2.75Z" fill="#010101"/>
</svg>
