<svg width="16" height="16" viewBox="0 0 16 16" fill="none" xmlns="http://www.w3.org/2000/svg">
<path d="M13.4693 8.39893H3.10199C2.95466 8.39893 2.83533 8.51826 2.83533 8.66559V10.3336C2.83533 10.4809 2.95533 10.6003 3.10199 10.6003C3.90933 10.6003 4.45866 10.8316 4.73533 11.2883C5.50733 12.5609 4.15599 15.1856 4.14199 15.2123C4.09933 15.2949 4.10199 15.3943 4.15066 15.4743C4.19933 15.5543 4.28533 15.6023 4.37866 15.6023H9.82933C9.83466 15.6023 9.83933 15.6023 9.84266 15.6023C9.99066 15.6023 10.1093 15.4829 10.1093 15.3356C10.1093 15.2716 10.0867 15.2123 10.0487 15.1669C9.90533 14.7803 9.29933 12.7383 11.7847 11.1376C13.7667 9.85959 13.744 8.76693 13.7353 8.64626C13.7247 8.50626 13.6087 8.39893 13.4693 8.39893ZM11.4953 10.6883C9.08466 12.2416 9.26466 14.2476 9.46733 15.0683H4.80066C5.17599 14.2243 5.92533 12.2209 5.19199 11.0116C4.84599 10.4416 4.23333 10.1263 3.36933 10.0743V8.93159H13.1507C13.036 9.27493 12.668 9.93226 11.4953 10.6883Z" fill="#010101"/>
<path d="M6.37931 6.82603V2.47869C6.37931 2.05069 6.13664 1.72803 5.81464 1.72803H2.82797C2.51131 1.72803 2.26331 2.05803 2.26331 2.47869V6.82603C2.26331 7.25469 2.50597 7.57736 2.82797 7.57736H5.81464C6.13664 7.57736 6.37931 7.25469 6.37931 6.82603ZM2.86397 7.05336C2.84664 7.04003 2.79731 6.96136 2.79731 6.82603V2.47869C2.79731 2.34403 2.84597 2.26536 2.82797 2.26136L5.77997 2.25203C5.79731 2.26536 5.84597 2.34403 5.84597 2.47869V3.09336H4.75064C4.75064 3.09336 4.48397 3.21269 4.48397 3.36003C4.48397 3.50736 4.60397 3.62669 4.75064 3.62669H5.84597V6.82669C5.84597 6.94336 5.80997 7.01803 5.78864 7.04469L2.86397 7.05336Z" fill="#010101"/>
<path d="M7.27796 7.57728H13.47C13.6173 7.57728 13.7366 7.45795 13.7366 7.31061C13.7366 7.16328 13.6166 7.04395 13.47 7.04395H7.27796C7.13062 7.04395 7.01129 7.16328 7.01129 7.31061C7.01129 7.45795 7.13062 7.57728 7.27796 7.57728Z" fill="#010101"/>
</svg>
