<svg width="29" height="16" viewBox="0 0 29 16" fill="none" xmlns="http://www.w3.org/2000/svg">
<path d="M21.0745 8C21.9208 7.979 22.6226 7.68733 23.1797 7.125C23.7368 6.56267 24.0257 5.85433 24.0465 5C24.0257 4.14567 23.7368 3.43733 23.1797 2.875C22.6226 2.31267 21.9208 2.021 21.0745 2C20.2281 2.021 19.5263 2.31267 18.9692 2.875C18.4121 3.43733 18.1232 4.14567 18.1024 5C18.1232 5.85433 18.4121 6.56267 18.9692 7.125C19.5263 7.68733 20.2281 7.979 21.0745 8ZM21.0745 9C19.9497 8.96867 19.0158 8.578 18.2728 7.828C17.5298 7.078 17.1427 6.13533 17.1117 5C17.1427 3.86467 17.5298 2.922 18.2728 2.172C19.0158 1.422 19.9497 1.03133 21.0745 1C22.1992 1.03133 23.1331 1.422 23.8761 2.172C24.6192 2.922 25.0062 3.86467 25.0372 5C25.0062 6.13533 24.6192 7.078 23.8761 7.828C23.1331 8.578 22.1992 8.96867 21.0745 9ZM26.0279 14V12.5C26.0177 12.073 25.8732 11.7188 25.5945 11.4375C25.3158 11.1562 24.9649 11.0103 24.5419 11H17.607C17.184 11.0103 16.8331 11.1562 16.5544 11.4375C16.2757 11.7188 16.1312 12.073 16.121 12.5V14C16.121 14.146 16.0746 14.2658 15.9818 14.3595C15.889 14.4532 15.7703 14.5 15.6257 14.5C15.481 14.5 15.3623 14.4532 15.2695 14.3595C15.1767 14.2658 15.1303 14.146 15.1303 14V12.5C15.1511 11.7917 15.3937 11.2032 15.858 10.7345C16.3223 10.2658 16.9053 10.021 17.607 10H24.5419C25.2436 10.021 25.8266 10.2658 26.291 10.7345C26.7553 11.2032 26.9978 11.7917 27.0186 12.5V14C27.0186 14.146 26.9722 14.2658 26.8794 14.3595C26.7866 14.4532 26.6679 14.5 26.5233 14.5C26.3786 14.5 26.2599 14.4532 26.1671 14.3595C26.0743 14.2658 26.0279 14.146 26.0279 14Z" fill="#010101"/>
<path d="M7.92554 8C8.77192 7.979 9.47366 7.68733 10.0308 7.125C10.5879 6.56267 10.8768 5.85433 10.8976 5C10.8768 4.14567 10.5879 3.43733 10.0308 2.875C9.47366 2.31267 8.77192 2.021 7.92554 2C7.07916 2.021 6.37742 2.31267 5.82032 2.875C5.26322 3.43733 4.97427 4.14567 4.95346 5C4.97427 5.85433 5.26322 6.56267 5.82032 7.125C6.37742 7.68733 7.07916 7.979 7.92554 8ZM7.92554 9C6.80077 8.96867 5.86688 8.578 5.12386 7.828C4.38084 7.078 3.99381 6.13533 3.96277 5C3.99381 3.86467 4.38084 2.922 5.12386 2.172C5.86688 1.422 6.80077 1.03133 7.92554 1C9.0503 1.03133 9.9842 1.422 10.7272 2.172C11.4702 2.922 11.8573 3.86467 11.8883 5C11.8573 6.13533 11.4702 7.078 10.7272 7.828C9.9842 8.578 9.0503 8.96867 7.92554 9ZM12.879 14V12.5C12.8688 12.073 12.7243 11.7188 12.4456 11.4375C12.1669 11.1562 11.816 11.0103 11.393 11H4.45812C4.03509 11.0103 3.68422 11.1562 3.4055 11.4375C3.12679 11.7188 2.98231 12.073 2.97208 12.5V14C2.97208 14.146 2.92568 14.2658 2.83288 14.3595C2.74009 14.4532 2.62137 14.5 2.47673 14.5C2.33209 14.5 2.21337 14.4532 2.12058 14.3595C2.02778 14.2658 1.98138 14.146 1.98138 14V12.5C2.00219 11.7917 2.24474 11.2032 2.70905 10.7345C3.17335 10.2658 3.75637 10.021 4.45812 10H11.393C12.0947 10.021 12.6777 10.2658 13.142 10.7345C13.6063 11.2032 13.8489 11.7917 13.8697 12.5V14C13.8697 14.146 13.8233 14.2658 13.7305 14.3595C13.6377 14.4532 13.519 14.5 13.3743 14.5C13.2297 14.5 13.111 14.4532 13.0182 14.3595C12.9254 14.2658 12.879 14.146 12.879 14Z" fill="#010101"/>
</svg>
