<svg width="25" height="26" viewBox="0 0 25 26" fill="none" xmlns="http://www.w3.org/2000/svg">
<path d="M22.5899 1.10873L12.5001 11.1986L2.41023 1.10873C2.14287 0.868709 1.84263 0.748699 1.50951 0.748699C1.17638 0.748699 0.882551 0.875543 0.628009 1.12923C0.373468 1.38292 0.246623 1.67675 0.247478 2.01073C0.248332 2.34471 0.368342 2.64495 0.607509 2.91145L10.6974 13.0013L0.607509 23.0911C0.260717 23.4379 0.147113 23.8518 0.266697 24.3327C0.38628 24.8136 0.680113 25.1138 1.1482 25.2334C1.61628 25.353 2.03653 25.2394 2.40895 24.8926L12.4988 14.8027L22.5886 24.8926C22.856 25.1326 23.1562 25.2526 23.4893 25.2526C23.8225 25.2526 24.1163 25.1258 24.3708 24.8721C24.6254 24.6184 24.7522 24.3245 24.7514 23.9906C24.7505 23.6566 24.6305 23.3564 24.3913 23.0899L14.3015 13L24.3913 2.91017C24.7381 2.56338 24.8517 2.14953 24.7322 1.66864C24.6126 1.18774 24.3123 0.887501 23.8314 0.767917C23.3505 0.648334 22.9367 0.761938 22.5899 1.10873Z" fill="#010101"/>
</svg>
