<svg width="16" height="17" viewBox="0 0 16 17" fill="none" xmlns="http://www.w3.org/2000/svg">
<path d="M11.9375 3.85949L7.99996 7.79699L4.06246 3.85949C3.95812 3.76582 3.84096 3.71899 3.71096 3.71899C3.58096 3.71899 3.46629 3.76849 3.36696 3.86749C3.26762 3.96649 3.21812 4.08116 3.21846 4.21149C3.21879 4.34182 3.26562 4.45899 3.35896 4.56299L7.29646 8.50049L3.35896 12.438C3.22362 12.5733 3.17929 12.7348 3.22596 12.9225C3.27262 13.1102 3.38729 13.2273 3.56996 13.274C3.75262 13.3207 3.91662 13.2763 4.06196 13.141L7.99946 9.20349L11.937 13.141C12.0413 13.2347 12.1585 13.2815 12.2885 13.2815C12.4185 13.2815 12.5331 13.232 12.6325 13.133C12.7318 13.034 12.7813 12.9193 12.781 12.789C12.7806 12.6587 12.7338 12.5415 12.6405 12.4375L8.70296 8.49999L12.6405 4.56249C12.7758 4.42716 12.8201 4.26566 12.7735 4.07799C12.7268 3.89032 12.6096 3.77316 12.422 3.72649C12.2343 3.67982 12.0728 3.72416 11.9375 3.85949Z" fill="#010101"/>
</svg>
