<svg width="28" height="22" viewBox="0 0 28 22" fill="none" xmlns="http://www.w3.org/2000/svg">
<path d="M2 2V18C2.02067 18.5627 2.21867 19.0313 2.594 19.406C2.96933 19.7807 3.438 19.9787 4 20H24C24.5627 19.9793 25.0313 19.7813 25.406 19.406C25.7807 19.0307 25.9787 18.562 26 18V2H2ZM2 0H26C26.5627 0.0206667 27.0313 0.218667 27.406 0.594C27.7807 0.969333 27.9787 1.438 28 2V18C27.9793 19.1253 27.5887 20.068 26.828 20.828C26.0673 21.588 25.1247 21.9787 24 22H4C2.87467 21.9793 1.932 21.5887 1.172 20.828C0.412 20.0673 0.0213333 19.1247 0 18V2C0.0206667 1.43733 0.218667 0.968667 0.594 0.594C0.969333 0.219333 1.438 0.0213333 2 0ZM26.25 2L18.531 10.844C17.9477 11.49 17.2653 11.99 16.484 12.344C15.7027 12.698 14.8747 12.875 14 12.875C13.1253 12.875 12.2973 12.698 11.516 12.344C10.7347 11.99 10.0523 11.49 9.469 10.844L1.75 2H26.25ZM4.406 2L11 9.531C11.3753 9.96833 11.8233 10.3017 12.344 10.531C12.8647 10.7603 13.4167 10.875 14 10.875C14.5833 10.875 15.1353 10.7603 15.656 10.531C16.1767 10.3017 16.6247 9.96833 17 9.531L23.594 2H4.406Z" fill="white"/>
</svg>
