<svg width="28" height="28" viewBox="0 0 28 28" fill="none" xmlns="http://www.w3.org/2000/svg">
<path d="M0.468296 11.5L16.4993 27.531C16.6453 27.677 16.8173 27.7657 17.0153 27.797C17.2133 27.8283 17.406 27.8023 17.5933 27.719L25.4993 24.344C25.8326 24.198 26.0306 23.9533 26.0933 23.61C26.156 23.2667 26.0623 22.9697 25.8123 22.719L21.0313 17.906C20.8646 17.76 20.677 17.6663 20.4683 17.625C20.2596 17.5837 20.0616 17.615 19.8743 17.719L17.6863 18.813L9.1863 10.313L10.2803 8.125C10.3843 7.93767 10.4156 7.73967 10.3743 7.531C10.333 7.32233 10.2393 7.13467 10.0933 6.968L5.2803 2.187C5.0303 1.937 4.7333 1.84333 4.3893 1.906C4.0453 1.96867 3.80063 2.16667 3.6553 2.5L0.280296 10.406C0.196963 10.5933 0.170963 10.786 0.202296 10.984C0.23363 11.182 0.322296 11.354 0.468296 11.5ZM2.3743 10.563L4.9053 4.625L8.1863 7.875L6.7483 10.719L17.2793 21.25L20.1233 19.812L23.3733 23.093L17.4353 25.624L2.3743 10.563ZM13.9993 8V6C16.27 6.06267 18.1553 6.844 19.6553 8.344C21.1553 9.844 21.9366 11.7293 21.9993 14H19.9993C19.9573 12.2913 19.374 10.8747 18.2493 9.75C17.1246 8.62533 15.708 8.042 13.9993 8ZM13.9993 2V0C17.958 0.104 21.255 1.47367 23.8903 4.109C26.5256 6.74433 27.8953 10.0413 27.9993 14H25.9993C25.916 10.604 24.744 7.776 22.4833 5.516C20.2226 3.256 17.3946 2.084 13.9993 2Z" fill="white"/>
</svg>
