<svg width="22" height="28" viewBox="0 0 22 28" fill="none" xmlns="http://www.w3.org/2000/svg">
<path d="M20 11C19.9373 8.458 19.057 6.33833 17.359 4.641C15.661 2.94367 13.5413 2.06333 11 2C8.458 2.06267 6.33833 2.943 4.641 4.641C2.94367 6.339 2.06333 8.45867 2 11C2 12.854 2.74467 14.9737 4.234 17.359C5.72333 19.7443 7.97867 22.385 11 25.281C14.0207 22.385 16.276 19.7443 17.766 17.359C19.256 14.9737 20.0007 12.854 20 11ZM11 28C3.66667 21.3333 0 15.6667 0 11C0.0833333 7.87467 1.15633 5.281 3.219 3.219C5.28167 1.157 7.87533 0.084 11 0C14.1253 0.0833333 16.719 1.15633 18.781 3.219C20.843 5.28167 21.916 7.87533 22 11C22 15.6667 18.3333 21.3333 11 28ZM11 14C11.854 13.9793 12.5623 13.6877 13.125 13.125C13.6877 12.5623 13.969 11.854 13.969 11C13.969 10.146 13.6877 9.43767 13.125 8.875C12.5623 8.31233 11.854 8.031 11 8.031C10.146 8.031 9.43767 8.31233 8.875 8.875C8.31233 9.43767 8.031 10.146 8.031 11C8.031 11.854 8.31233 12.5623 8.875 13.125C9.43767 13.6877 10.146 13.9793 11 14ZM11 16C9.58333 15.958 8.40633 15.4683 7.469 14.531C6.53167 13.5937 6.042 12.4167 6 11C6.042 9.58333 6.53167 8.40633 7.469 7.469C8.40633 6.53167 9.58333 6.042 11 6C12.4167 6.042 13.5937 6.53167 14.531 7.469C15.4683 8.40633 15.958 9.58333 16 11C15.958 12.4167 15.4683 13.5937 14.531 14.531C13.5937 15.4683 12.4167 15.958 11 16Z" fill="white"/>
</svg>
